<svg width="3832" height="2959" viewBox="0 0 3832 2959" fill="none" xmlns="http://www.w3.org/2000/svg">
<path d="M280 3.4361C428.314 -9.74734 845.842 9.47995 1209.71 159.771C1573.57 310.062 1796.37 486.062 1862.29 555.276V933.016C1414.87 963.49 1061.39 1336.07 1061.39 1791.22C1061.39 1899.78 1081.5 2003.65 1118.2 2099.3C1026.5 2091.62 886.896 2082.92 773.5 2088.71C555.598 2099.84 356.564 2142.21 280 2161.21V3.4361ZM437 1947.71H700V1662.71H437V1947.71ZM437 1461.09H700V1176.09H437V1461.09ZM437 974.476H700V689.476H437V974.476ZM437 202.86V487.86H700V202.86H437Z" fill="#EFA950"/>
<path d="M138.936 305.191V2332.05C205.501 2312.21 468.001 2235.71 741 2221.71C925.851 2212.23 1104.3 2227.4 1216.41 2240.87C1249.64 2294.96 1288.69 2345.1 1332.69 2390.41C1169.87 2367.2 1003.86 2350.76 863.004 2350.76C503.909 2350.76 138.045 2457.63 0 2511.07V272.067L138.936 305.191Z" fill="#50555F"/>
<path d="M2621.58 159.772C2985.44 9.48093 3402.97 -9.74636 3551.29 3.43707V2161.21C3474.72 2142.21 3275.69 2099.84 3057.79 2088.71C2944.39 2082.92 2804.79 2091.62 2713.08 2099.3C2749.78 2003.65 2769.9 1899.78 2769.9 1791.22C2769.9 1336.08 2416.41 963.49 1969 933.016V555.277C2034.92 486.063 2257.72 310.063 2621.58 159.772ZM3132 1938.56H3395V1653.56H3132V1938.56ZM3132 1451.94H3395V1166.94H3132V1451.94ZM3132 965.324H3395V680.324H3132V965.324ZM3132 193.709V478.709H3395V193.709H3132Z" fill="#50555F"/>
<path d="M3692.35 305.191V2332.05C3625.78 2312.21 3363.28 2235.71 3090.29 2221.71C2905.43 2212.23 2726.99 2227.4 2614.88 2240.87C2581.64 2294.96 2542.59 2345.1 2498.6 2390.41C2661.42 2367.2 2827.43 2350.76 2968.28 2350.76C3327.38 2350.76 3693.24 2457.63 3831.29 2511.07V272.067L3692.35 305.191Z" fill="#50555F"/>
<path d="M1708 2610.21C1873.2 2571.81 2042 2596.21 2290.5 2406.71L1757.5 2441.71C1324 2441.71 1081.83 2651.71 960 2805.21L1286.5 2747.71L1397 2958.71C1425.83 2859.54 1478.5 2663.55 1708 2610.21Z" fill="#828894"/>
<path d="M1221.46 1567.45C1345.24 1186.51 1756.53 978.726 2140.12 1103.36C2523.7 1227.99 2734.32 1637.85 2610.54 2018.79C2486.76 2399.74 2075.47 2607.52 1691.88 2482.88C1308.3 2358.25 1097.68 1948.4 1221.46 1567.45ZM1777.06 1985.21C1691.11 1922.76 1570.81 1941.81 1508.37 2027.76C1445.92 2113.71 1464.98 2234.01 1550.93 2296.46C1636.88 2358.9 1757.17 2339.85 1819.62 2253.9C1882.07 2167.95 1863.01 2047.65 1777.06 1985.21ZM2324.45 2027.17C2262 1941.22 2141.7 1922.17 2055.75 1984.62C1969.8 2047.06 1950.75 2167.36 2013.19 2253.31C2075.64 2339.26 2195.94 2358.32 2281.89 2295.87C2367.84 2233.42 2386.89 2113.12 2324.45 2027.17ZM1956.52 1670.04C1888.19 1647.84 1814.81 1685.23 1792.6 1753.56C1770.4 1821.88 1807.8 1895.27 1876.13 1917.47C1944.45 1939.67 2017.84 1902.28 2040.04 1833.95C2062.24 1765.63 2024.85 1692.24 1956.52 1670.04ZM1566.88 1477.95C1465.84 1445.12 1357.31 1500.41 1324.48 1601.45C1291.65 1702.49 1346.95 1811.02 1447.99 1843.85C1549.03 1876.68 1657.55 1821.38 1690.38 1720.34C1723.21 1619.3 1667.92 1510.78 1566.88 1477.95ZM2437.16 1504.18C2389.04 1469.28 2325.48 1457.08 2264.63 1476.86C2163.59 1509.69 2108.29 1618.21 2141.12 1719.25C2153.97 1758.79 2178.4 1791.32 2209.45 1814.31C2209.6 1814.42 2209.76 1814.53 2209.91 1814.65C2210.33 1814.96 2210.75 1815.27 2211.17 1815.57C2259.28 1850.47 2322.85 1862.66 2383.7 1842.89C2484.74 1810.06 2540.04 1701.54 2507.21 1600.5C2494.37 1560.98 2469.94 1528.45 2438.92 1505.47C2438.38 1505.07 2437.83 1504.67 2437.29 1504.27C2437.24 1504.24 2437.2 1504.21 2437.16 1504.18ZM1915.31 1171.46C1809.07 1171.46 1722.95 1257.59 1722.95 1363.83C1722.95 1470.07 1809.07 1556.19 1915.31 1556.19C2021.55 1556.19 2107.67 1470.07 2107.67 1363.83C2107.67 1257.59 2021.55 1171.46 1915.31 1171.46Z" fill="#828894"/>
</svg>
